<?xml version="1.0" encoding="utf-8"?>
<svg version="1.1" id="Layer_2" xmlns="http://www.w3.org/2000/svg" xmlns:xlink="http://www.w3.org/1999/xlink" x="0px" y="0px"
	 viewBox="0 0 512 512" style="enable-background:new 0 0 512 512;" xml:space="preserve">
<style type="text/css">
	.st0{fill:#981328;stroke:#981328;stroke-miterlimit:10;}
	.st1{fill:none;stroke:#FFFFFF;stroke-width:10;stroke-miterlimit:10;}
	.st2{fill:none;stroke:#FFFFFF;stroke-width:5.046;stroke-miterlimit:10;}
	.st3{fill:none;stroke:#FFFFFF;stroke-width:4.3689;stroke-miterlimit:10;}
	.st4{fill:none;stroke:#FFFFFF;stroke-width:7.6142;stroke-miterlimit:10;}
	.st5{fill:none;stroke:#FFFFFF;stroke-width:3.8421;stroke-miterlimit:10;}
	.st6{fill:none;stroke:#FFFFFF;stroke-width:3.3265;stroke-miterlimit:10;}
	.st7{fill:#FFFFFF;stroke:#FFFFFF;stroke-width:5;stroke-miterlimit:10;}
</style>
<circle class="st0" cx="256" cy="256" r="255"/>
<circle class="st1" cx="256" cy="256" r="219.8"/>
<circle class="st2" cx="256" cy="256" r="235.8"/>
<circle class="st3" cx="256" cy="256" r="204.1"/>
<circle class="st4" cx="256" cy="256" r="167.4"/>
<circle class="st5" cx="256" cy="256" r="179.5"/>
<circle class="st6" cx="256" cy="256" r="155.4"/>
<path class="st0" d="M465.7,401.1C419.2,463.1,339.5,511,256,511c-86.9,0-163.7-43.5-209.7-109.9L256,256L465.7,401.1z"/>
<g>
	<path class="st7" d="M252.3,313.4c-6.9,3.4-20.6,6.8-38.2,6.8c-40.7,0-71.4-25.4-71.4-72.2c0-44.6,30.7-74.9,75.5-74.9
		c18,0,29.4,3.8,34.3,6.3l-4.5,15c-7.1-3.4-17.1-5.9-29.2-5.9c-33.9,0-56.4,21.4-56.4,58.8c0,34.9,20.4,57.3,55.5,57.3
		c11.4,0,22.9-2.3,30.4-5.9L252.3,313.4z"/>
	<path class="st7" d="M273,295.7c8.4,5.1,20.6,9.3,33.4,9.3c19.1,0,30.2-9.9,30.2-24.3c0-13.3-7.7-20.9-27.2-28.4
		c-23.6-8.3-38.2-20.3-38.2-40.4c0-22.2,18.6-38.7,46.7-38.7c14.8,0,25.5,3.4,31.9,7l-5.1,15c-4.7-2.5-14.4-6.8-27.4-6.8
		c-19.7,0-27.2,11.6-27.2,21.4c0,13.3,8.8,19.9,28.7,27.5c24.4,9.3,36.9,20.9,36.9,41.9c0,22-16.5,41-50.6,41
		c-13.9,0-29.2-4-36.9-9.1L273,295.7z"/>
</g>
<g>
	<path class="st7" d="M122.3,374.4v47.9c0,18.1,8,25.8,18.8,25.8c12,0,19.7-7.9,19.7-25.8v-47.9h10.6v47.2c0,24.8-13.1,35-30.6,35
		c-16.6,0-29-9.5-29-34.6v-47.6H122.3z"/>
	<path class="st7" d="M189.2,412.9c0-6-0.1-10.9-0.5-15.7h9.4l0.6,9.6h0.2c2.9-5.5,9.6-10.9,19.2-10.9c8,0,20.5,4.8,20.5,24.7v34.7
		H228v-33.5c0-9.4-3.5-17.2-13.4-17.2c-7,0-12.4,4.9-14.2,10.8c-0.5,1.3-0.7,3.1-0.7,4.9v34.9h-10.6V412.9z"/>
	<path class="st7" d="M267.5,380.9c0.1,3.6-2.5,6.5-6.7,6.5c-3.7,0-6.4-2.9-6.4-6.5c0-3.7,2.8-6.6,6.6-6.6
		C265,374.3,267.5,377.2,267.5,380.9z M255.8,455.3v-58.1h10.6v58.1H255.8z"/>
	<path class="st7" d="M283.4,455.3c0.2-4,0.5-9.8,0.5-15v-70.2h10.4v36.5h0.2c3.7-6.5,10.4-10.7,19.8-10.7c14.4,0,24.6,12,24.5,29.6
		c0,20.8-13.1,31.1-26,31.1c-8.4,0-15.1-3.2-19.4-10.9H293l-0.5,9.6H283.4z M294.3,432c0,1.3,0.2,2.6,0.5,3.8
		c2,7.3,8.2,12.4,15.8,12.4c11,0,17.6-9,17.6-22.3c0-11.6-6-21.6-17.3-21.6c-7.2,0-13.9,4.9-16.1,13c-0.2,1.2-0.6,2.6-0.6,4.3V432z"
		/>
	<path class="st7" d="M404.7,425.8c0,21.5-14.9,30.8-28.9,30.8c-15.7,0-27.8-11.5-27.8-29.9c0-19.4,12.7-30.8,28.8-30.8
		C393.4,395.9,404.7,408,404.7,425.8z M358.6,426.4c0,12.7,7.3,22.3,17.6,22.3c10.1,0,17.6-9.5,17.6-22.6c0-9.8-4.9-22.3-17.4-22.3
		C364,403.8,358.6,415.3,358.6,426.4z"/>
</g>
</svg>
