<?xml version="1.0" encoding="utf-8"?>
<svg version="1.1" id="Layer_2_00000037682755854067693620000018049569013670952341_"
	 xmlns="http://www.w3.org/2000/svg" xmlns:xlink="http://www.w3.org/1999/xlink" x="0px" y="0px" viewBox="0 0 192 192"
	 style="enable-background:new 0 0 192 192;" xml:space="preserve">
<style type="text/css">
	.st0{fill:#981328;stroke:#981328;stroke-width:0.3725;stroke-miterlimit:10;}
	.st1{fill:none;stroke:#FFFFFF;stroke-width:3.7255;stroke-miterlimit:10;}
	.st2{fill:none;stroke:#FFFFFF;stroke-width:1.8799;stroke-miterlimit:10;}
	.st3{fill:none;stroke:#FFFFFF;stroke-width:1.6276;stroke-miterlimit:10;}
	.st4{fill:none;stroke:#FFFFFF;stroke-width:2.8367;stroke-miterlimit:10;}
	.st5{fill:none;stroke:#FFFFFF;stroke-width:1.4314;stroke-miterlimit:10;}
	.st6{fill:none;stroke:#FFFFFF;stroke-width:1.2393;stroke-miterlimit:10;}
	.st7{fill:#FFFFFF;stroke:#FFFFFF;stroke-width:1.8627;stroke-miterlimit:10;}
</style>
<circle class="st0" cx="96" cy="96" r="95"/>
<circle class="st1" cx="96" cy="96" r="81.9"/>
<circle class="st2" cx="96" cy="96" r="87.8"/>
<circle class="st3" cx="96" cy="96" r="76"/>
<circle class="st4" cx="96" cy="96" r="62.4"/>
<circle class="st5" cx="96" cy="96" r="66.9"/>
<circle class="st6" cx="96" cy="96" r="57.9"/>
<path class="st0" d="M174.1,150.1c-17.3,23.1-47,40.9-78.1,40.9c-32.4,0-61-16.2-78.1-40.9L96,96L174.1,150.1z"/>
<g>
	<path class="st7" d="M94.6,117.4c-2.6,1.3-7.7,2.5-14.2,2.5c-15.2,0-26.6-9.5-26.6-26.9c0-16.6,11.4-27.9,28.1-27.9
		c6.7,0,11,1.4,12.8,2.3L93,73.1c-2.6-1.3-6.4-2.2-10.9-2.2c-12.6,0-21,8-21,21.9c0,13,7.6,21.3,20.7,21.3c4.2,0,8.5-0.9,11.3-2.2
		L94.6,117.4z"/>
	<path class="st7" d="M102.3,110.8c3.1,1.9,7.7,3.5,12.4,3.5c7.1,0,11.3-3.7,11.3-9.1c0-5-2.9-7.8-10.1-10.6
		c-8.8-3.1-14.2-7.6-14.2-15.1c0-8.3,6.9-14.4,17.4-14.4c5.5,0,9.5,1.3,11.9,2.6l-1.9,5.6c-1.8-0.9-5.4-2.5-10.2-2.5
		c-7.3,0-10.1,4.3-10.1,8c0,5,3.3,7.4,10.7,10.2c9.1,3.5,13.7,7.8,13.7,15.6c0,8.2-6.1,15.3-18.9,15.3c-5.2,0-10.9-1.5-13.7-3.4
		L102.3,110.8z"/>
</g>
<g>
	<path class="st7" d="M46.2,140.1V158c0,6.7,3,9.6,7,9.6c4.5,0,7.3-2.9,7.3-9.6v-17.8h3.9v17.6c0,9.2-4.9,13-11.4,13
		c-6.2,0-10.8-3.5-10.8-12.9v-17.7H46.2z"/>
	<path class="st7" d="M71.1,154.5c0-2.2,0-4.1-0.2-5.8h3.5l0.2,3.6h0.1c1.1-2,3.6-4.1,7.2-4.1c3,0,7.6,1.8,7.6,9.2v12.9h-3.9v-12.5
		c0-3.5-1.3-6.4-5-6.4c-2.6,0-4.6,1.8-5.3,4c-0.2,0.5-0.3,1.2-0.3,1.8v13h-3.9L71.1,154.5L71.1,154.5z"/>
	<path class="st7" d="M100.3,142.5c0,1.3-0.9,2.4-2.5,2.4c-1.4,0-2.4-1.1-2.4-2.4c0-1.4,1-2.5,2.5-2.5
		C99.4,140.1,100.3,141.2,100.3,142.5z M95.9,170.2v-21.6h3.9v21.6H95.9z"/>
	<path class="st7" d="M106.2,170.2c0.1-1.5,0.2-3.7,0.2-5.6v-26.2h3.9v13.6h0.1c1.4-2.4,3.9-4,7.4-4c5.4,0,9.2,4.5,9.1,11
		c0,7.7-4.9,11.6-9.7,11.6c-3.1,0-5.6-1.2-7.2-4.1h-0.1l-0.2,3.6H106.2z M110.3,161.6c0,0.5,0.1,1,0.2,1.4c0.7,2.7,3.1,4.6,5.9,4.6
		c4.1,0,6.6-3.4,6.6-8.3c0-4.3-2.2-8-6.4-8c-2.7,0-5.2,1.8-6,4.8c-0.1,0.4-0.2,1-0.2,1.6L110.3,161.6L110.3,161.6z"/>
	<path class="st7" d="M151.4,159.3c0,8-5.6,11.5-10.8,11.5c-5.8,0-10.4-4.3-10.4-11.1c0-7.2,4.7-11.5,10.7-11.5
		C147.2,148.1,151.4,152.6,151.4,159.3z M134.2,159.5c0,4.7,2.7,8.3,6.6,8.3c3.8,0,6.6-3.5,6.6-8.4c0-3.7-1.8-8.3-6.5-8.3
		C136.2,151.1,134.2,155.3,134.2,159.5z"/>
</g>
</svg>
